# xmcd
#
# Track frame offsets:
#	150
#	13612
#	31812
#	60412
#	82687
#	106687
#	126412
#	140662
#	152137
#	166087
#	185287
#	199912
#
# Disc length: 2930 seconds
#
# Revision: 1
# Processed by: cddbd v1.4b42PL1 Copyright (c) Steve Scherf et al.
# Submitted via: audiograbber 1.80
#
DISCID=8e0b700c
DTITLE=Throbs - Mind Behing the Sky
DYEAR=1900
DGENRE=
TTITLE0=Throw it in the Fire
TTITLE1=Footsteps
TTITLE2=Melt the Stone
TTITLE3=Hurry Down
TTITLE4=Make It Right
TTITLE5=Faces
TTITLE6=Throb Your Life Away
TTITLE7=With You Everday
TTITLE8=Heat of the Summer
TTITLE9=Tomorrow on the Way
TTITLE10=Soon
TTITLE11=Mind Behind the Sky
EXTD=
EXTT0=
EXTT1=
EXTT2=
EXTT3=
EXTT4=
EXTT5=
EXTT6=
EXTT7=
EXTT8=
EXTT9=
EXTT10=
EXTT11=
PLAYORDER=
